<svg version="1.1" xmlns="http://www.w3.org/2000/svg" viewBox="0 0 1883.7440190877596 1515.6682046526496" width="1883.7440190877596" height="1515.6682046526496">
  <!-- svg-source:excalidraw -->
  
  <defs>
    <style class="style-fonts">
      @font-face {
        font-family: "Virgil";
        src: url("https://file%2B.vscode-resource.vscode-cdn.net/Users/tangruilin/.vscode/extensions/pomdtr.excalidraw-editor-3.7.4/public//dist/excalidraw-assets/Virgil.woff2");
      }
      @font-face {
        font-family: "Cascadia";
        src: url("https://file%2B.vscode-resource.vscode-cdn.net/Users/tangruilin/.vscode/extensions/pomdtr.excalidraw-editor-3.7.4/public//dist/excalidraw-assets/Cascadia.woff2");
      }
      @font-face {
        font-family: "Assistant";
        src: url("https://file%2B.vscode-resource.vscode-cdn.net/Users/tangruilin/.vscode/extensions/pomdtr.excalidraw-editor-3.7.4/public//dist/excalidraw-assets/Assistant-Regular.woff2");
      }
    </style>
    
  </defs>
  <rect x="0" y="0" width="1883.7440190877596" height="1515.6682046526496" fill="#ffffff"></rect><g stroke-linecap="round" transform="translate(208.93071159010537 11.19100615864312) rotate(0 70.0830078125 25.861000061035156)"><path d="M12.93 0 C41.81 -0.78, 71.64 -2.05, 127.24 0 M12.93 0 C37.65 1.78, 63.05 1.03, 127.24 0 M127.24 0 C135.06 1.01, 141.68 3.45, 140.17 12.93 M127.24 0 C136.1 -1.6, 142.45 5.4, 140.17 12.93 M140.17 12.93 C140.94 20.35, 139.35 25.88, 140.17 38.79 M140.17 12.93 C141 21.68, 140.6 29.05, 140.17 38.79 M140.17 38.79 C138.79 47.11, 135.86 52.69, 127.24 51.72 M140.17 38.79 C141.36 46.4, 134.93 50.11, 127.24 51.72 M127.24 51.72 C90.63 51.11, 54.59 51.73, 12.93 51.72 M127.24 51.72 C86.61 51.73, 46.03 52.56, 12.93 51.72 M12.93 51.72 C4.41 49.88, -1.35 45.72, 0 38.79 M12.93 51.72 C6.49 53.67, 2.22 49.49, 0 38.79 M0 38.79 C-1.7 34.04, -0.55 27.75, 0 12.93 M0 38.79 C-0.57 30.04, 0.23 20.54, 0 12.93 M0 12.93 C-1.31 3.02, 5.25 1.26, 12.93 0 M0 12.93 C1.49 3.83, 2.43 -1.91, 12.93 0" stroke="#1e1e1e" stroke-width="2" fill="none"></path></g><g transform="translate(223.7137773860038 24.552006219678276) rotate(0 55.29994201660156 12.5)"><text x="55.29994201660156" y="0" font-family="Virgil, Segoe UI Emoji" font-size="20px" fill="#1e1e1e" text-anchor="middle" style="white-space: pre;" direction="ltr" dominant-baseline="text-before-edge">Redis-client</text></g><g stroke-linecap="round"><g transform="translate(276.79527651898945 69.54005226859476) rotate(0 -0.3563442133709991 20.76500408284508)"><path d="M-0.04 -0.21 C-0.2 6.85, -0.87 35.11, -0.96 42.07 M-0.73 -0.79 C-0.98 6.16, -1.49 34.22, -1.51 41.38" stroke="#1e1e1e" stroke-width="2" fill="none"></path></g><g transform="translate(276.79527651898945 69.54005226859476) rotate(0 -0.3563442133709991 20.76500408284508)"><path d="M-8.38 21.78 C-6.74 27.24, -3.32 33.83, -1.51 41.38 M-8.38 21.78 C-6.24 27.45, -4.15 34.26, -1.51 41.38" stroke="#1e1e1e" stroke-width="2" fill="none"></path></g><g transform="translate(276.79527651898945 69.54005226859476) rotate(0 -0.3563442133709991 20.76500408284508)"><path d="M5.82 21.95 C3.19 27.35, 2.33 33.89, -1.51 41.38 M5.82 21.95 C3.61 27.5, 1.36 34.25, -1.51 41.38" stroke="#1e1e1e" stroke-width="2" fill="none"></path></g></g><mask></mask><g stroke-linecap="round" transform="translate(14.396458472378754 973.7411376909647) rotate(0 285.92137118824127 193.5964272815752)"><path d="M32 0 C184.63 -1.33, 335.18 -1.44, 539.84 0 M32 0 C181.47 -0.6, 330.28 0.02, 539.84 0 M539.84 0 C561.03 -0.45, 572.34 10.54, 571.84 32 M539.84 0 C559.34 -1.1, 573.05 11.74, 571.84 32 M571.84 32 C571.33 153.74, 571.31 272.64, 571.84 355.19 M571.84 32 C573.53 105.76, 573.26 181.21, 571.84 355.19 M571.84 355.19 C573.79 374.77, 560.15 385.91, 539.84 387.19 M571.84 355.19 C570.85 376.39, 559.54 385.18, 539.84 387.19 M539.84 387.19 C353.8 385.48, 167 385.08, 32 387.19 M539.84 387.19 C430.87 385.6, 322.32 385.43, 32 387.19 M32 387.19 C12.66 388.65, 0.93 376.07, 0 355.19 M32 387.19 C9.42 385.51, -1.25 375.93, 0 355.19 M0 355.19 C-2.19 289.17, -2.13 220.79, 0 32 M0 355.19 C1.12 285.95, 1.72 215.76, 0 32 M0 32 C0.56 10.17, 9.12 -0.04, 32 0 M0 32 C0.86 9, 9.9 0.82, 32 0" stroke="#1e1e1e" stroke-width="2" fill="none"></path></g><g transform="translate(216.84343956086195 994.4481659138714) rotate(0 80.10994720458984 12.5)"><text x="0" y="0" font-family="Virgil, Segoe UI Emoji" font-size="20px" fill="#1e1e1e" text-anchor="start" style="white-space: pre;" direction="ltr" dominant-baseline="text-before-edge">BackendManager</text></g><g stroke-linecap="round" transform="translate(1296.7314795959942 754.819417699641) rotate(0 170.04099507383762 89.02642712397193)"><path d="M32 0 C113.01 -0.38, 194.81 -0.85, 308.08 0 M32 0 C119.76 0.6, 208.34 0.7, 308.08 0 M308.08 0 C327.74 0.17, 341.87 10.23, 340.08 32 M308.08 0 C328.82 0.15, 341.45 8.87, 340.08 32 M340.08 32 C339.3 61.04, 339.14 92.01, 340.08 146.05 M340.08 32 C339.36 58.45, 338.65 84.67, 340.08 146.05 M340.08 146.05 C340.68 169.11, 330.59 179.65, 308.08 178.05 M340.08 146.05 C341.56 166.85, 330.24 177.81, 308.08 178.05 M308.08 178.05 C205.59 175.1, 104.23 175.79, 32 178.05 M308.08 178.05 C253.18 176.03, 197.86 176.35, 32 178.05 M32 178.05 C9.66 178.01, -0.21 167.56, 0 146.05 M32 178.05 C9.43 176.23, -2.2 168.22, 0 146.05 M0 146.05 C0.98 108.12, 0.15 68.54, 0 32 M0 146.05 C-0.12 113.39, 1.02 78.7, 0 32 M0 32 C1.86 10.9, 10.34 -0.8, 32 0 M0 32 C-1.43 9.01, 9.02 0.33, 32 0" stroke="#1e1e1e" stroke-width="2" fill="none"></path></g><g transform="translate(1433.3525070184646 831.345844823613) rotate(0 33.41996765136719 12.5)"><text x="33.41996765136719" y="0" font-family="Virgil, Segoe UI Emoji" font-size="20px" fill="#1e1e1e" text-anchor="middle" style="white-space: pre;" direction="ltr" dominant-baseline="text-before-edge">Router</text></g><g stroke-linecap="round" transform="translate(55.582212178412476 1137.595407502001) rotate(0 73.96898660849985 98.75306527555449)"><path d="M32 0 C63.01 0.34, 89.54 0.34, 115.94 0 M32 0 C55.46 -1.01, 80.47 -1.72, 115.94 0 M115.94 0 C137.22 1.14, 146.8 11.92, 147.94 32 M115.94 0 C137.58 -1.21, 148.95 12.43, 147.94 32 M147.94 32 C150.97 71.61, 150.98 106.24, 147.94 165.51 M147.94 32 C147.05 79.85, 146.91 127.24, 147.94 165.51 M147.94 165.51 C148.38 184.94, 137.72 197.32, 115.94 197.51 M147.94 165.51 C147.44 188.09, 136.59 199.35, 115.94 197.51 M115.94 197.51 C98.53 196.86, 80.29 195.82, 32 197.51 M115.94 197.51 C94.13 197.74, 71.42 198.1, 32 197.51 M32 197.51 C9.43 199.08, 1.31 184.89, 0 165.51 M32 197.51 C11.1 197.16, 0.73 185.09, 0 165.51 M0 165.51 C-0.88 113.03, 0.43 60.29, 0 32 M0 165.51 C1.23 125.91, 1.06 85.89, 0 32 M0 32 C1.82 10.11, 8.78 0.91, 32 0 M0 32 C0.59 9.99, 9.38 -1.11, 32 0" stroke="#1e1e1e" stroke-width="2" fill="none"></path></g><g transform="translate(89.89122564238107 1223.8484727775556) rotate(0 39.65997314453125 12.5)"><text x="39.65997314453125" y="0" font-family="Virgil, Segoe UI Emoji" font-size="20px" fill="#1e1e1e" text-anchor="middle" style="white-space: pre;" direction="ltr" dominant-baseline="text-before-edge">Backend</text></g><g stroke-linecap="round" transform="translate(236.10829140530336 1140.4253933052107) rotate(0 70.54706109419726 96.02811609870776)"><path d="M32 0 C58.88 -0.2, 85.34 2.26, 109.09 0 M32 0 C51.14 -0.29, 70.67 -0.13, 109.09 0 M109.09 0 C131.48 1, 140.69 11.18, 141.09 32 M109.09 0 C129.8 -1.17, 141.69 8.83, 141.09 32 M141.09 32 C141.2 65.58, 139.91 96.88, 141.09 160.06 M141.09 32 C141.69 77.34, 141.8 124.74, 141.09 160.06 M141.09 160.06 C140.94 182.31, 131.1 190.14, 109.09 192.06 M141.09 160.06 C138.96 179.17, 132.52 190.37, 109.09 192.06 M109.09 192.06 C86.74 191.89, 63.33 192.9, 32 192.06 M109.09 192.06 C85.49 190.96, 61.57 192.26, 32 192.06 M32 192.06 C9.84 192.62, -1.04 181.57, 0 160.06 M32 192.06 C10.41 194.22, -1.15 180.03, 0 160.06 M0 160.06 C-0.08 124.98, 2.39 94.19, 0 32 M0 160.06 C0.34 127.34, -0.11 92.37, 0 32 M0 32 C-0.66 8.7, 9.95 -0.8, 32 0 M0 32 C1.25 10.35, 10.7 0.14, 32 0" stroke="#1e1e1e" stroke-width="2" fill="none"></path></g><g transform="translate(266.9953793549694 1223.9535094039184) rotate(0 39.65997314453125 12.5)"><text x="39.65997314453125" y="0" font-family="Virgil, Segoe UI Emoji" font-size="20px" fill="#1e1e1e" text-anchor="middle" style="white-space: pre;" direction="ltr" dominant-baseline="text-before-edge">Backend</text></g><g stroke-linecap="round" transform="translate(414.08380111808356 1143.3076616216567) rotate(0 72.42201225470565 93.5054619913148)"><path d="M32 0 C63.48 0.51, 91.1 -1.33, 112.84 0 M32 0 C51.08 -0.26, 69.62 -0.32, 112.84 0 M112.84 0 C136.01 1.2, 144.04 9.68, 144.84 32 M112.84 0 C134.16 -0.06, 143.53 8.43, 144.84 32 M144.84 32 C144.7 58.53, 145.27 83.95, 144.84 155.01 M144.84 32 C146.52 60.07, 145.12 88.38, 144.84 155.01 M144.84 155.01 C143.22 177.81, 132.59 185.37, 112.84 187.01 M144.84 155.01 C146.35 175.33, 134.75 185.04, 112.84 187.01 M112.84 187.01 C90.97 186.35, 68.54 185.68, 32 187.01 M112.84 187.01 C86.5 186.33, 59.68 186.89, 32 187.01 M32 187.01 C9.04 187.4, 0.64 174.98, 0 155.01 M32 187.01 C9.05 185.26, -1.57 175.02, 0 155.01 M0 155.01 C-1.77 118.96, 1.01 83.41, 0 32 M0 155.01 C-1.35 108.33, -0.48 61.53, 0 32 M0 32 C-1.75 12.07, 9.58 -0.57, 32 0 M0 32 C1.09 11.14, 12.7 -0.54, 32 0" stroke="#1e1e1e" stroke-width="2" fill="none"></path></g><g transform="translate(446.84584022825794 1224.3131236129714) rotate(0 39.65997314453126 12.5)"><text x="39.65997314453125" y="0" font-family="Virgil, Segoe UI Emoji" font-size="20px" fill="#1e1e1e" text-anchor="middle" style="white-space: pre;" direction="ltr" dominant-baseline="text-before-edge">Backend</text></g><g stroke-linecap="round" transform="translate(68.19929240365923 1256.1029101505358) rotate(0 62.16182156678724 35.792459487707106)"><path d="M17.9 0 C46.41 0.72, 75.39 0.19, 106.43 0 M17.9 0 C40.36 0.6, 64.01 -0.32, 106.43 0 M106.43 0 C118.19 1.18, 125.79 6, 124.32 17.9 M106.43 0 C117.84 1.35, 126.14 6.79, 124.32 17.9 M124.32 17.9 C123.99 26.77, 125.31 36.17, 124.32 53.69 M124.32 17.9 C125.18 27.36, 125.23 35.65, 124.32 53.69 M124.32 53.69 C124.8 65.65, 119.25 70.72, 106.43 71.58 M124.32 53.69 C124.67 67.84, 119.17 71.25, 106.43 71.58 M106.43 71.58 C82.49 72.18, 57.16 72.73, 17.9 71.58 M106.43 71.58 C82.79 72.23, 60.18 71.42, 17.9 71.58 M17.9 71.58 C4.06 70.42, 1.49 65.85, 0 53.69 M17.9 71.58 C7.61 71.91, -1.96 65.13, 0 53.69 M0 53.69 C-1.78 44.08, 0.22 34.92, 0 17.9 M0 53.69 C-0.15 40.49, -0.17 28.89, 0 17.9 M0 17.9 C-0.57 6.33, 6.14 0.1, 17.9 0 M0 17.9 C0.73 4.12, 5.33 -0.85, 17.9 0" stroke="#1e1e1e" stroke-width="2" fill="none"></path></g><g transform="translate(73.64117378489959 1279.395369638243) rotate(0 56.719940185546875 12.5)"><text x="56.719940185546875" y="0" font-family="Virgil, Segoe UI Emoji" font-size="20px" fill="#1e1e1e" text-anchor="middle" style="white-space: pre;" direction="ltr" dominant-baseline="text-before-edge">Redis-Client</text></g><g stroke-linecap="round" transform="translate(243.76720758692306 1251.5947499244173) rotate(0 62.16182156678724 35.792459487707106)"><path d="M17.9 0 C43.03 -0.16, 66.01 0.84, 106.43 0 M17.9 0 C40.75 -0.04, 62.02 0.62, 106.43 0 M106.43 0 C116.74 -1.89, 123.47 4.72, 124.32 17.9 M106.43 0 C120.29 0.72, 125.59 5.56, 124.32 17.9 M124.32 17.9 C124.24 31.46, 124.7 45.2, 124.32 53.69 M124.32 17.9 C125.07 26.01, 124.73 32.75, 124.32 53.69 M124.32 53.69 C126.18 65.04, 117.05 72.66, 106.43 71.58 M124.32 53.69 C122.65 66.75, 119.59 73.7, 106.43 71.58 M106.43 71.58 C71.61 73.28, 41.07 72.57, 17.9 71.58 M106.43 71.58 C80.37 72.62, 55.37 72.74, 17.9 71.58 M17.9 71.58 C6.97 72.03, 1.73 66.09, 0 53.69 M17.9 71.58 C5.27 73.34, 0.38 66.72, 0 53.69 M0 53.69 C-0.62 43.02, 0.78 29.23, 0 17.9 M0 53.69 C-0.43 45.49, -0.97 35.93, 0 17.9 M0 17.9 C-1.98 5.94, 4.81 0.14, 17.9 0 M0 17.9 C-1.63 6.54, 6.41 1.05, 17.9 0" stroke="#1e1e1e" stroke-width="2" fill="none"></path></g><g transform="translate(249.20908896816343 1274.8872094121245) rotate(0 56.719940185546875 12.5)"><text x="56.719940185546875" y="0" font-family="Virgil, Segoe UI Emoji" font-size="20px" fill="#1e1e1e" text-anchor="middle" style="white-space: pre;" direction="ltr" dominant-baseline="text-before-edge">Redis-Client</text></g><g stroke-linecap="round" transform="translate(424.42235436846113 1249.5560164670237) rotate(0 62.16182156678724 35.79245948770705)"><path d="M17.9 0 C44.6 1.29, 72.44 0.88, 106.43 0 M17.9 0 C47.46 0.14, 78.22 -1.55, 106.43 0 M106.43 0 C116.76 -0.11, 124.22 5.99, 124.32 17.9 M106.43 0 C116.44 2.09, 123.11 6.18, 124.32 17.9 M124.32 17.9 C125.79 24.65, 122.59 36.31, 124.32 53.69 M124.32 17.9 C124.44 32.7, 124.92 46.29, 124.32 53.69 M124.32 53.69 C124.63 64.62, 120.11 73.17, 106.43 71.58 M124.32 53.69 C123.29 64.47, 116.89 72.43, 106.43 71.58 M106.43 71.58 C88.25 72.17, 66.7 70.35, 17.9 71.58 M106.43 71.58 C83.03 70.58, 59.98 72.21, 17.9 71.58 M17.9 71.58 C6.11 70.07, -1.29 66.28, 0 53.69 M17.9 71.58 C5.98 73.33, -0.65 64.72, 0 53.69 M0 53.69 C0.44 44.66, 0.24 34.78, 0 17.9 M0 53.69 C-1.13 44, -0.86 32.45, 0 17.9 M0 17.9 C-0.54 6.96, 6.08 -1.74, 17.9 0 M0 17.9 C0.97 6.12, 8.17 -0.48, 17.9 0" stroke="#1e1e1e" stroke-width="2" fill="none"></path></g><g transform="translate(429.8642357497015 1272.8484759547307) rotate(0 56.719940185546875 12.5)"><text x="56.719940185546875" y="0" font-family="Virgil, Segoe UI Emoji" font-size="20px" fill="#1e1e1e" text-anchor="middle" style="white-space: pre;" direction="ltr" dominant-baseline="text-before-edge">Redis-Client</text></g><g stroke-linecap="round" transform="translate(29.786913731965 140.5279449352676) rotate(0 258.43750368778683 36.284760341679544)"><path d="M18.14 0 C132.96 -1.17, 246.01 -0.93, 498.73 0 M18.14 0 C169.92 -0.37, 321.28 -0.08, 498.73 0 M498.73 0 C511.28 -0.9, 514.89 5.55, 516.88 18.14 M498.73 0 C510.56 -0.49, 514.8 7.96, 516.88 18.14 M516.88 18.14 C518.49 29.74, 517.9 37.33, 516.88 54.43 M516.88 18.14 C516.41 28.74, 516.86 38.41, 516.88 54.43 M516.88 54.43 C516.3 64.79, 511.84 72.26, 498.73 72.57 M516.88 54.43 C515.14 67.22, 508.98 73.28, 498.73 72.57 M498.73 72.57 C372.04 71.72, 246.06 70.94, 18.14 72.57 M498.73 72.57 C329.67 72.38, 160.72 72.67, 18.14 72.57 M18.14 72.57 C6.05 72.12, -1.08 66.13, 0 54.43 M18.14 72.57 C4.44 72.85, 2.02 64.45, 0 54.43 M0 54.43 C1.27 42.66, 1.36 28.03, 0 18.14 M0 54.43 C0.69 46.31, -0.04 40.36, 0 18.14 M0 18.14 C0.19 7.2, 5.67 0.39, 18.14 0 M0 18.14 C1.46 7.39, 3.88 1.43, 18.14 0" stroke="#1e1e1e" stroke-width="2" fill="none"></path></g><g transform="translate(199.2945010379159 164.31270527694716) rotate(0 88.92991638183594 12.5)"><text x="88.92991638183594" y="0" font-family="Virgil, Segoe UI Emoji" font-size="20px" fill="#1e1e1e" text-anchor="middle" style="white-space: pre;" direction="ltr" dominant-baseline="text-before-edge">ListenerEventLoop</text></g><g stroke-linecap="round" transform="translate(381.04822199074465 11.931828206318926) rotate(0 70.0830078125 25.861000061035156)"><path d="M12.93 0 C46.44 -0.24, 77.67 -0.53, 127.24 0 M12.93 0 C45.22 -1.54, 77.2 -0.05, 127.24 0 M127.24 0 C134.2 0.9, 140.66 5.45, 140.17 12.93 M127.24 0 C137.78 1.41, 141.68 5.26, 140.17 12.93 M140.17 12.93 C140.51 18.87, 140.41 26.32, 140.17 38.79 M140.17 12.93 C140.3 23.79, 139.59 33.06, 140.17 38.79 M140.17 38.79 C138.74 45.72, 134.85 53.08, 127.24 51.72 M140.17 38.79 C139.74 49.16, 137.52 50.14, 127.24 51.72 M127.24 51.72 C102.1 49.59, 81.41 50, 12.93 51.72 M127.24 51.72 C101.44 50.88, 74.89 52, 12.93 51.72 M12.93 51.72 C3.46 52.05, 0.25 48.93, 0 38.79 M12.93 51.72 C2.9 53.59, 1.21 46, 0 38.79 M0 38.79 C-0.26 28.23, 0.18 19.82, 0 12.93 M0 38.79 C-0.42 28.68, -0.21 20.93, 0 12.93 M0 12.93 C-1.78 5.12, 3.9 -1.53, 12.93 0 M0 12.93 C-2.07 5.22, 6.22 -1.92, 12.93 0" stroke="#1e1e1e" stroke-width="2" fill="none"></path></g><g transform="translate(395.8312877866431 25.292828267354082) rotate(0 55.29994201660156 12.5)"><text x="55.29994201660156" y="0" font-family="Virgil, Segoe UI Emoji" font-size="20px" fill="#1e1e1e" text-anchor="middle" style="white-space: pre;" direction="ltr" dominant-baseline="text-before-edge">Redis-client</text></g><g stroke-linecap="round"><g transform="translate(448.9895967438466 69.73978466194393) rotate(0 0.021979377364729658 22.935317730274022)"><path d="M-0.34 -0.18 C-0.19 7.38, 0.58 37.89, 0.58 45.48 M0.49 -0.74 C0.63 6.86, 0.38 38.23, 0.42 45.98" stroke="#1e1e1e" stroke-width="2" fill="none"></path></g><g transform="translate(448.9895967438466 69.73978466194393) rotate(0 0.021979377364729658 22.935317730274022)"><path d="M-7.38 24.41 C-5.77 30.66, -4.26 34.15, 0.42 45.98 M-7.38 24.41 C-6.16 29.49, -4.39 33.88, 0.42 45.98" stroke="#1e1e1e" stroke-width="2" fill="none"></path></g><g transform="translate(448.9895967438466 69.73978466194393) rotate(0 0.021979377364729658 22.935317730274022)"><path d="M8.31 24.44 C6.09 30.63, 3.78 34.12, 0.42 45.98 M8.31 24.44 C6.19 29.46, 4.62 33.83, 0.42 45.98" stroke="#1e1e1e" stroke-width="2" fill="none"></path></g></g><mask></mask><g stroke-linecap="round" transform="translate(44.02429170447124 10) rotate(0 70.0830078125 25.861000061035156)"><path d="M12.93 0 C34.9 0.47, 59.26 0.62, 127.24 0 M12.93 0 C42.26 0.83, 71.5 1.98, 127.24 0 M127.24 0 C134.36 -0.56, 140.71 5.75, 140.17 12.93 M127.24 0 C137.82 -1.83, 139.35 5.84, 140.17 12.93 M140.17 12.93 C140.59 20.61, 138.62 30.37, 140.17 38.79 M140.17 12.93 C139.88 20.74, 140.86 27.87, 140.17 38.79 M140.17 38.79 C140.35 46.95, 137.54 53.58, 127.24 51.72 M140.17 38.79 C138.19 46.48, 136.22 52.63, 127.24 51.72 M127.24 51.72 C96.73 51.84, 68.42 50.77, 12.93 51.72 M127.24 51.72 C84.83 52.44, 44.29 53.18, 12.93 51.72 M12.93 51.72 C3.96 50.85, -1.99 48.22, 0 38.79 M12.93 51.72 C6.16 53.77, -0.01 49.1, 0 38.79 M0 38.79 C-2.13 34.55, -2.21 29.11, 0 12.93 M0 38.79 C0.7 30.78, -0.99 23.07, 0 12.93 M0 12.93 C-1.05 5.22, 4.75 0.88, 12.93 0 M0 12.93 C-1.27 3.56, 5.64 1.96, 12.93 0" stroke="#1e1e1e" stroke-width="2" fill="none"></path></g><g transform="translate(58.807357500369676 23.361000061035156) rotate(0 55.29994201660156 12.5)"><text x="55.29994201660156" y="0" font-family="Virgil, Segoe UI Emoji" font-size="20px" fill="#1e1e1e" text-anchor="middle" style="white-space: pre;" direction="ltr" dominant-baseline="text-before-edge">Redis-client</text></g><g stroke-linecap="round"><g transform="translate(115.0897579047305 66.46156954069903) rotate(0 0.03872268793303135 23.87195062205828)"><path d="M0.45 -0.3 C0.32 7.65, -0.16 40.28, -0.31 48.24 M0.01 0.73 C0.02 8.77, 0.63 39.67, 0.73 47.52" stroke="#1e1e1e" stroke-width="2" fill="none"></path></g><g transform="translate(115.0897579047305 66.46156954069903) rotate(0 0.03872268793303135 23.87195062205828)"><path d="M-7.8 25.23 C-4.99 32.98, -0.3 41.23, 0.73 47.52 M-7.8 25.23 C-6.12 30.39, -3.93 35.94, 0.73 47.52" stroke="#1e1e1e" stroke-width="2" fill="none"></path></g><g transform="translate(115.0897579047305 66.46156954069903) rotate(0 0.03872268793303135 23.87195062205828)"><path d="M8.53 24.96 C5.12 32.89, 3.59 41.23, 0.73 47.52 M8.53 24.96 C6.29 30.24, 4.56 35.86, 0.73 47.52" stroke="#1e1e1e" stroke-width="2" fill="none"></path></g></g><mask></mask><g stroke-linecap="round" transform="translate(24.56999494011859 274.6733676202085) rotate(0 258.43750368778683 104.8785948327019)"><path d="M32 0 C183.26 -2.12, 333.21 -2.19, 484.88 0 M32 0 C171.69 1.46, 312.27 1.04, 484.88 0 M484.88 0 C507.45 0.21, 515.36 9.66, 516.88 32 M484.88 0 C505.85 0.44, 514.86 11.18, 516.88 32 M516.88 32 C517.27 88.77, 517.12 144.79, 516.88 177.76 M516.88 32 C517.39 71.95, 518.18 111.63, 516.88 177.76 M516.88 177.76 C515.27 199.9, 504.38 210.96, 484.88 209.76 M516.88 177.76 C518.5 200.55, 507.11 209.17, 484.88 209.76 M484.88 209.76 C375.39 208.8, 264.72 208.75, 32 209.76 M484.88 209.76 C312.14 211.61, 139.8 211.97, 32 209.76 M32 209.76 C9.76 211.11, 1.57 199.38, 0 177.76 M32 209.76 C8.7 211.2, 1.21 198.28, 0 177.76 M0 177.76 C-1.2 139.86, 1.18 100.87, 0 32 M0 177.76 C1.27 133.03, 0.63 89.45, 0 32 M0 32 C-0.29 9.23, 8.68 0.23, 32 0 M0 32 C-0.93 9.49, 8.45 0.6, 32 0" stroke="#1e1e1e" stroke-width="2" fill="none"></path></g><g stroke-linecap="round" transform="translate(44.17882747788747 372.7893233619437) rotate(0 69.82792577870356 25.84276708717846)"><path d="M12.92 0 C39.44 0.15, 70.27 1.59, 126.73 0 M12.92 0 C56.19 0.21, 102.31 -0.25, 126.73 0 M126.73 0 C134.71 0.33, 138.76 4.98, 139.66 12.92 M126.73 0 C135.15 1.06, 140.88 3.94, 139.66 12.92 M139.66 12.92 C141.14 16.77, 140.52 24.33, 139.66 38.76 M139.66 12.92 C140.36 22.91, 140.1 32.05, 139.66 38.76 M139.66 38.76 C140.43 46.51, 136.23 51.27, 126.73 51.69 M139.66 38.76 C141.77 45.1, 134.62 49.59, 126.73 51.69 M126.73 51.69 C94.31 49.66, 64.21 49.34, 12.92 51.69 M126.73 51.69 C98.13 52.14, 69.86 52.24, 12.92 51.69 M12.92 51.69 C4.46 53.09, 0.8 48.89, 0 38.76 M12.92 51.69 C2.88 53.47, 0.01 45.42, 0 38.76 M0 38.76 C-0.39 33.83, 0.95 23.8, 0 12.92 M0 38.76 C0.33 33.22, 0.02 26.87, 0 12.92 M0 12.92 C0.96 3.15, 5.68 1.93, 12.92 0 M0 12.92 C-0.62 5.95, 6.2 -1.18, 12.92 0" stroke="#1e1e1e" stroke-width="2" fill="none"></path></g><g transform="translate(86.95678072241134 386.13209044912213) rotate(0 27.049972534179688 12.5)"><text x="27.049972534179688" y="0" font-family="Virgil, Segoe UI Emoji" font-size="20px" fill="#1e1e1e" text-anchor="middle" style="white-space: pre;" direction="ltr" dominant-baseline="text-before-edge">Client</text></g><g stroke-linecap="round" transform="translate(214.61086718216774 371.15751037877425) rotate(0 69.82792577870356 25.84276708717846)"><path d="M12.92 0 C49.4 0.69, 87.05 2.28, 126.73 0 M12.92 0 C37.1 -1.12, 59.94 -1.24, 126.73 0 M126.73 0 C135.5 -1.36, 140.39 5.86, 139.66 12.92 M126.73 0 C133.13 -1.57, 140.43 2.44, 139.66 12.92 M139.66 12.92 C140.74 22.57, 138.36 33.3, 139.66 38.76 M139.66 12.92 C140.03 18.02, 139.5 24.27, 139.66 38.76 M139.66 38.76 C139.86 46.03, 133.74 52.62, 126.73 51.69 M139.66 38.76 C141.81 45.58, 133.15 49.41, 126.73 51.69 M126.73 51.69 C84.39 51.14, 46.1 52.63, 12.92 51.69 M126.73 51.69 C103.07 51.31, 80.81 51.76, 12.92 51.69 M12.92 51.69 C2.48 50.86, 0.72 49.08, 0 38.76 M12.92 51.69 C4.2 49.51, 0.26 49.15, 0 38.76 M0 38.76 C-0.57 31.12, -1.78 25.6, 0 12.92 M0 38.76 C0.49 32.1, -0.48 27.92, 0 12.92 M0 12.92 C1.4 2.99, 3.12 1.35, 12.92 0 M0 12.92 C-1.84 5.25, 4.12 0.44, 12.92 0" stroke="#1e1e1e" stroke-width="2" fill="none"></path></g><g transform="translate(257.3888204266916 384.5002774659527) rotate(0 27.049972534179688 12.5)"><text x="27.049972534179688" y="0" font-family="Virgil, Segoe UI Emoji" font-size="20px" fill="#1e1e1e" text-anchor="middle" style="white-space: pre;" direction="ltr" dominant-baseline="text-before-edge">Client</text></g><g stroke-linecap="round" transform="translate(384.9522391760988 372.38592636868276) rotate(0 69.82792577870356 25.84276708717846)"><path d="M12.92 0 C44.59 -1.1, 75.2 -1.63, 126.73 0 M12.92 0 C42.96 -0.31, 74.4 -0.24, 126.73 0 M126.73 0 C134.81 1.96, 138.76 2.82, 139.66 12.92 M126.73 0 C137.07 -1.29, 141.68 5.98, 139.66 12.92 M139.66 12.92 C141.22 20.07, 139.49 22.85, 139.66 38.76 M139.66 12.92 C138.67 20.49, 139 27.83, 139.66 38.76 M139.66 38.76 C141.47 48.8, 137.23 50.79, 126.73 51.69 M139.66 38.76 C138.83 48.85, 133.08 53, 126.73 51.69 M126.73 51.69 C88.51 53.5, 47.59 52.63, 12.92 51.69 M126.73 51.69 C99.99 50.47, 73.21 49.65, 12.92 51.69 M12.92 51.69 C6.07 51.83, 1.62 47.64, 0 38.76 M12.92 51.69 C2.63 50.5, 1.48 45.53, 0 38.76 M0 38.76 C-1.9 31.33, -1.42 19.38, 0 12.92 M0 38.76 C0.89 33.81, -0.11 28.62, 0 12.92 M0 12.92 C1.93 6.13, 2.82 -1.69, 12.92 0 M0 12.92 C-0.43 4.64, 2.78 1.1, 12.92 0" stroke="#1e1e1e" stroke-width="2" fill="none"></path></g><g transform="translate(427.73019242062264 385.7286934558612) rotate(0 27.049972534179688 12.5)"><text x="27.049972534179688" y="0" font-family="Virgil, Segoe UI Emoji" font-size="20px" fill="#1e1e1e" text-anchor="middle" style="white-space: pre;" direction="ltr" dominant-baseline="text-before-edge">Client</text></g><g transform="translate(218.94867112925772 320.2695547843136) rotate(0 67.49994659423828 12.5)"><text x="0" y="0" font-family="Virgil, Segoe UI Emoji" font-size="20px" fill="#1e1e1e" text-anchor="start" style="white-space: pre;" direction="ltr" dominant-baseline="text-before-edge">ClientManager</text></g><g transform="translate(192.4253588396283 453.3300107074438) rotate(0 102.87992095947266 12.5)"><text x="0" y="0" font-family="Virgil, Segoe UI Emoji" font-size="20px" fill="#e03131" text-anchor="start" style="white-space: pre;" direction="ltr" dominant-baseline="text-before-edge">One Client, one class</text></g><g stroke-linecap="round"><g transform="translate(276.877994797057 222.74339968465785) rotate(0 -74.24310019275174 65.53963727775843)"><path d="M0.05 -1.05 C-24.48 20.74, -123.51 108.63, -148.18 130.63 M-1.38 1.02 C-25.96 22.98, -124.45 110.07, -148.97 131.93" stroke="#1e1e1e" stroke-width="2" fill="none"></path></g><g transform="translate(276.877994797057 222.74339968465785) rotate(0 -74.24310019275174 65.53963727775843)"><path d="M-134.7 105.54 C-139.6 111.85, -141.74 117.91, -148.97 131.93 M-134.7 105.54 C-138.94 113.33, -143.39 121.33, -148.97 131.93" stroke="#1e1e1e" stroke-width="2" fill="none"></path></g><g transform="translate(276.877994797057 222.74339968465785) rotate(0 -74.24310019275174 65.53963727775843)"><path d="M-121.08 120.89 C-128.96 123.83, -134.08 126.53, -148.97 131.93 M-121.08 120.89 C-129.34 124.16, -137.71 127.73, -148.97 131.93" stroke="#1e1e1e" stroke-width="2" fill="none"></path></g></g><mask></mask><g stroke-linecap="round"><g transform="translate(279.2056780583259 221.71592971756178) rotate(0 0.12281930775474592 43.22255385288551)"><path d="M-0.9 0.54 C-0.73 14.87, 0.9 72.45, 1.23 86.66 M0.83 -0.22 C0.91 13.66, 0.81 70.14, 0.8 84.66" stroke="#1e1e1e" stroke-width="2" fill="none"></path></g><g transform="translate(279.2056780583259 221.71592971756178) rotate(0 0.12281930775474592 43.22255385288551)"><path d="M-9.42 56.45 C-5.09 67.17, -2.37 75.92, 0.8 84.66 M-9.42 56.45 C-8.02 62.67, -4.24 71.28, 0.8 84.66" stroke="#1e1e1e" stroke-width="2" fill="none"></path></g><g transform="translate(279.2056780583259 221.71592971756178) rotate(0 0.12281930775474592 43.22255385288551)"><path d="M11.1 56.48 C8.89 67.03, 5.06 75.77, 0.8 84.66 M11.1 56.48 C7.37 62.79, 6.02 71.4, 0.8 84.66" stroke="#1e1e1e" stroke-width="2" fill="none"></path></g></g><mask></mask><g stroke-linecap="round"><g transform="translate(279.8255106514789 222.64412938655462) rotate(0 89.24920489612357 69.48973025126838)"><path d="M0.93 -0.96 C30.86 22.25, 149.22 115.94, 178.78 139.37 M-0.04 1.15 C29.83 23.98, 148.4 114.71, 177.98 137.45" stroke="#1e1e1e" stroke-width="2" fill="none"></path></g><g transform="translate(279.8255106514789 222.64412938655462) rotate(0 89.24920489612357 69.48973025126838)"><path d="M149.36 128.44 C154.42 130.78, 163.32 132.04, 177.98 137.45 M149.36 128.44 C159.24 130.66, 170.3 133.88, 177.98 137.45" stroke="#1e1e1e" stroke-width="2" fill="none"></path></g><g transform="translate(279.8255106514789 222.64412938655462) rotate(0 89.24920489612357 69.48973025126838)"><path d="M161.85 112.15 C164.02 118.37, 170.01 123.42, 177.98 137.45 M161.85 112.15 C167.21 120.23, 173.85 129.21, 177.98 137.45" stroke="#1e1e1e" stroke-width="2" fill="none"></path></g></g><mask></mask><g transform="translate(247.01645746609478 247.84079316535826) rotate(0 32.64997100830078 12.5)"><text x="0" y="0" font-family="Virgil, Segoe UI Emoji" font-size="20px" fill="#e03131" text-anchor="start" style="white-space: pre;" direction="ltr" dominant-baseline="text-before-edge">Accept</text></g><g stroke-linecap="round"><g transform="translate(497.12872849697953 73.75435966228218) rotate(0 -0.03487991763950049 145.3538790920839)"><path d="M0.16 -0.94 C0.11 47.56, -0.67 242.75, -0.63 291.38 M-1.22 1.19 C-1.44 49.3, -2.06 241.1, -1.88 289.6" stroke="#1e1e1e" stroke-width="2" fill="none"></path></g><g transform="translate(497.12872849697953 73.75435966228218) rotate(0 -0.03487991763950049 145.3538790920839)"><path d="M-12.13 261.41 C-10.83 268.06, -5.39 277.37, -1.88 289.6 M-12.13 261.41 C-9.83 270.97, -6.28 278.91, -1.88 289.6" stroke="#1e1e1e" stroke-width="2" fill="none"></path></g><g transform="translate(497.12872849697953 73.75435966228218) rotate(0 -0.03487991763950049 145.3538790920839)"><path d="M8.39 261.42 C4.15 268.09, 4.06 277.4, -1.88 289.6 M8.39 261.42 C4.34 271.17, 1.52 279.1, -1.88 289.6" stroke="#1e1e1e" stroke-width="2" fill="none"></path></g></g><mask></mask><g transform="translate(510.49040903037667 100.86220155556992) rotate(0 72.61994171142578 12.5)"><text x="0" y="0" font-family="Virgil, Segoe UI Emoji" font-size="20px" fill="#1e1e1e" text-anchor="start" style="white-space: pre;" direction="ltr" dominant-baseline="text-before-edge">Send Resp Msg</text></g><g stroke-linecap="round" transform="translate(58.08368941445258 1034.1220236129952) rotate(0 244.07910094507616 34.21485376930542)"><path d="M17.11 0 C117.97 -0.45, 218.68 -0.7, 471.05 0 M17.11 0 C119.9 -1.54, 222.55 -0.77, 471.05 0 M471.05 0 C483.45 -1.36, 487.28 7.51, 488.16 17.11 M471.05 0 C482.35 1.81, 490.19 4.17, 488.16 17.11 M488.16 17.11 C488.69 29.04, 489.36 40.75, 488.16 51.32 M488.16 17.11 C488.83 30.03, 488.71 41.02, 488.16 51.32 M488.16 51.32 C488.22 62.74, 482.75 68.12, 471.05 68.43 M488.16 51.32 C489.55 61.68, 482.87 67.84, 471.05 68.43 M471.05 68.43 C316.62 65.92, 160.68 66.61, 17.11 68.43 M471.05 68.43 C291.42 68.16, 110.99 67.56, 17.11 68.43 M17.11 68.43 C4.89 69.48, -1.61 64.41, 0 51.32 M17.11 68.43 C3.6 70.53, -1.05 64.4, 0 51.32 M0 51.32 C-0.1 43.99, 0.38 33.11, 0 17.11 M0 51.32 C0.54 43.95, 0.77 37.01, 0 17.11 M0 17.11 C-1.5 4.5, 5.02 1.22, 17.11 0 M0 17.11 C1.28 4.57, 4.94 1.09, 17.11 0" stroke="#1e1e1e" stroke-width="2" fill="none"></path></g><g transform="translate(210.24286848452874 1055.8368773823006) rotate(0 91.919921875 12.5)"><text x="91.919921875" y="0" font-family="Virgil, Segoe UI Emoji" font-size="20px" fill="#1e1e1e" text-anchor="middle" style="white-space: pre;" direction="ltr" dominant-baseline="text-before-edge">BackendWorkerPool</text></g><g stroke-linecap="round" transform="translate(1699.9500073445984 791.3059460782326) rotate(0 86.89700587158052 55.53657538705545)"><path d="M27.77 0 C62.68 1.57, 101.34 1.61, 146.03 0 M27.77 0 C57.86 -0.78, 88.49 -1.2, 146.03 0 M146.03 0 C165.16 1.01, 172.8 9.39, 173.79 27.77 M146.03 0 C165.55 -0.11, 172.16 7.85, 173.79 27.77 M173.79 27.77 C173.01 48.52, 175.53 68.83, 173.79 83.3 M173.79 27.77 C174.06 43.72, 173.77 60.66, 173.79 83.3 M173.79 83.3 C173.34 101.59, 164.74 111.45, 146.03 111.07 M173.79 83.3 C172.27 102.19, 165.32 111.48, 146.03 111.07 M146.03 111.07 C107.94 108.75, 71.35 110.88, 27.77 111.07 M146.03 111.07 C104.24 111.96, 60.34 112.29, 27.77 111.07 M27.77 111.07 C9.59 113.02, -0.78 101.81, 0 83.3 M27.77 111.07 C10.26 111.08, 0.31 100.83, 0 83.3 M0 83.3 C-2.07 64.44, 0.67 48.44, 0 27.77 M0 83.3 C-0.01 71.08, 0.86 58.84, 0 27.77 M0 27.77 C-1.54 7.35, 10.83 1.7, 27.77 0 M0 27.77 C1.91 10.62, 7.92 0.33, 27.77 0" stroke="#1e1e1e" stroke-width="2" fill="none"></path></g><g transform="translate(1772.4370248128585 834.3425214652882) rotate(0 14.409988403320312 12.5)"><text x="14.409988403320312" y="0" font-family="Virgil, Segoe UI Emoji" font-size="20px" fill="#1e1e1e" text-anchor="middle" style="white-space: pre;" direction="ltr" dominant-baseline="text-before-edge">PD</text></g><g stroke-linecap="round"><g transform="translate(1623.8834197731444 845.2123514542918) rotate(0 33.635059757621434 -2.3784218343548105)"><path d="M0.65 -0.58 C11.87 -1.66, 56.66 -4.95, 67.71 -5.62 M-0.47 1.72 C10.6 0.71, 55.92 -3.72, 67 -4.53" stroke="#1e1e1e" stroke-width="2" fill="none"></path></g><g transform="translate(1623.8834197731444 845.2123514542918) rotate(0 33.635059757621434 -2.3784218343548105)"><path d="M39.81 8.14 C47.75 4.54, 56.29 -0.93, 67 -4.53 M39.81 8.14 C49.12 3.77, 57.59 -0.74, 67 -4.53" stroke="#1e1e1e" stroke-width="2" fill="none"></path></g><g transform="translate(1623.8834197731444 845.2123514542918) rotate(0 33.635059757621434 -2.3784218343548105)"><path d="M38.02 -12.3 C46.7 -9.15, 55.83 -7.84, 67 -4.53 M38.02 -12.3 C47.7 -10.26, 56.72 -8.34, 67 -4.53" stroke="#1e1e1e" stroke-width="2" fill="none"></path></g></g><mask></mask><g transform="translate(1390.9902681007575 985.1421628929195) rotate(359.64992983999747 135.639892578125 12.5)"><text x="0" y="0" font-family="Virgil, Segoe UI Emoji" font-size="20px" fill="#1e1e1e" text-anchor="start" style="white-space: pre;" direction="ltr" dominant-baseline="text-before-edge">Use raft to get metadata</text></g><g stroke-linecap="round" transform="translate(742.8254175070718 624.6877588391028) rotate(0 168.33453206746321 160.55505952967707)"><path d="M32 0 C131.59 -0.07, 231.02 -1.34, 304.67 0 M32 0 C91.09 0.38, 150.91 0.01, 304.67 0 M304.67 0 C325.86 -1.54, 336.32 12.36, 336.67 32 M304.67 0 C324.49 -2.03, 334.95 10.07, 336.67 32 M336.67 32 C337.02 109.86, 336.6 188.85, 336.67 289.11 M336.67 32 C336.74 117.47, 336.76 200.84, 336.67 289.11 M336.67 289.11 C337.64 309.87, 327.9 320.07, 304.67 321.11 M336.67 289.11 C338.73 309.27, 325.41 322.15, 304.67 321.11 M304.67 321.11 C229.62 321.72, 153.25 321.54, 32 321.11 M304.67 321.11 C227 322.24, 149.54 321.6, 32 321.11 M32 321.11 C12.08 319.84, -0.21 308.75, 0 289.11 M32 321.11 C12.71 320.03, 1.89 310.75, 0 289.11 M0 289.11 C1.87 188.91, 0.76 88.52, 0 32 M0 289.11 C1.94 230.87, 1.58 170.97, 0 32 M0 32 C-1.46 10.3, 12.48 0.66, 32 0 M0 32 C1.9 10.29, 12.83 1.98, 32 0" stroke="#1e1e1e" stroke-width="2" fill="none"></path></g><g stroke-linecap="round" transform="translate(784.6201027702451 669.4232504383242) rotate(0 136.93814554067933 31.019736943110303)"><path d="M15.51 0 C84.37 1.76, 155.07 0.82, 258.37 0 M15.51 0 C87.62 1.26, 158.14 1.94, 258.37 0 M258.37 0 C268.16 -0.25, 274.26 5.63, 273.88 15.51 M258.37 0 C271 0.85, 272.01 6.67, 273.88 15.51 M273.88 15.51 C275.28 25.3, 272.53 35.59, 273.88 46.53 M273.88 15.51 C274.51 20.88, 274.37 27.99, 273.88 46.53 M273.88 46.53 C274.7 57.16, 270.13 60.49, 258.37 62.04 M273.88 46.53 C274.2 56.44, 269.7 60.69, 258.37 62.04 M258.37 62.04 C197.13 64.41, 139.52 63.58, 15.51 62.04 M258.37 62.04 C178.56 61.51, 98.32 61.66, 15.51 62.04 M15.51 62.04 C3.35 63.26, -1.84 57.92, 0 46.53 M15.51 62.04 C5.85 61.2, -2.05 56.07, 0 46.53 M0 46.53 C1.44 39.17, -1.39 29.38, 0 15.51 M0 46.53 C-0.37 40.44, 1.18 33.78, 0 15.51 M0 15.51 C0.27 5.04, 6.54 1.73, 15.51 0 M0 15.51 C-1.85 5.93, 6.54 -1.58, 15.51 0" stroke="#1e1e1e" stroke-width="2" fill="none"></path></g><g transform="translate(821.5483377274284 687.9429873814345) rotate(0 100.0099105834961 12.5)"><text x="100.0099105834961" y="0" font-family="Virgil, Segoe UI Emoji" font-size="20px" fill="#1e1e1e" text-anchor="middle" style="white-space: pre;" direction="ltr" dominant-baseline="text-before-edge">RedisCommandParser</text></g><g stroke-linecap="round" transform="translate(10 567.6480363752778) rotate(0 295.63291275478196 135.64662005094124)"><path d="M32 0 C226.3 -1.8, 419.96 -0.97, 559.27 0 M32 0 C187.22 -2.03, 342.55 -1.56, 559.27 0 M559.27 0 C579.98 1.67, 590.18 9.76, 591.27 32 M559.27 0 C581.6 1.24, 592.32 9.4, 591.27 32 M591.27 32 C588.59 74.94, 589.2 117.82, 591.27 239.29 M591.27 32 C589.98 84.32, 590.4 136.73, 591.27 239.29 M591.27 239.29 C590.58 261.67, 580.48 270.98, 559.27 271.29 M591.27 239.29 C593.52 261.42, 578.91 272.84, 559.27 271.29 M559.27 271.29 C392.6 269.55, 225.49 270.6, 32 271.29 M559.27 271.29 C449.59 271.93, 340.33 271.5, 32 271.29 M32 271.29 C9.72 272.52, -1.92 262.32, 0 239.29 M32 271.29 C9.11 271.12, 1.33 259.29, 0 239.29 M0 239.29 C0.2 197.42, 0.9 154.52, 0 32 M0 239.29 C1.59 160.73, 2.33 83.32, 0 32 M0 32 C0.31 9.76, 9.04 -0.31, 32 0 M0 32 C-1.94 12.27, 8.47 1.32, 32 0" stroke="#1e1e1e" stroke-width="2" fill="none"></path></g><g stroke-linecap="round" transform="translate(426.57462555785713 749.5608154269736) rotate(0 69.82792577870356 25.84276708717846)"><path d="M12.92 0 C47.34 2.91, 82.94 2.68, 126.73 0 M12.92 0 C45.83 -0.53, 78.22 -0.33, 126.73 0 M126.73 0 C133.51 -0.14, 140.12 3.82, 139.66 12.92 M126.73 0 C136.34 -0.35, 141.69 5.37, 139.66 12.92 M139.66 12.92 C139.59 23.46, 138.81 30.54, 139.66 38.76 M139.66 12.92 C139.46 21.06, 139.31 27.8, 139.66 38.76 M139.66 38.76 C139.56 47.3, 134.14 52.8, 126.73 51.69 M139.66 38.76 C140.95 45.53, 133.74 49.7, 126.73 51.69 M126.73 51.69 C90.17 53.29, 50.82 50.98, 12.92 51.69 M126.73 51.69 C100.36 53.08, 73.56 53.5, 12.92 51.69 M12.92 51.69 C4.61 52.25, 1.96 46.55, 0 38.76 M12.92 51.69 C5.84 50.43, 1.79 47.61, 0 38.76 M0 38.76 C0.78 28.34, 1.49 19.09, 0 12.92 M0 38.76 C1.01 30.44, -0.61 22.5, 0 12.92 M0 12.92 C1.32 2.74, 3.38 -0.03, 12.92 0 M0 12.92 C1.29 4.11, 4.49 0.23, 12.92 0" stroke="#1e1e1e" stroke-width="2" fill="none"></path></g><g transform="translate(464.46257941273257 762.903582514152) rotate(0 31.939971923828125 12.5)"><text x="31.939971923828125" y="0" font-family="Virgil, Segoe UI Emoji" font-size="20px" fill="#1e1e1e" text-anchor="middle" style="white-space: pre;" direction="ltr" dominant-baseline="text-before-edge">Worker</text></g><g stroke-linecap="round" transform="translate(242.3139225950179 749.9284018887979) rotate(0 69.82792577870356 25.84276708717846)"><path d="M12.92 0 C45.54 1.84, 75.76 0.32, 126.73 0 M12.92 0 C39.09 -0.71, 65.95 0.11, 126.73 0 M126.73 0 C137.12 0.44, 139.87 4.47, 139.66 12.92 M126.73 0 C133.14 -0.79, 139.18 4.98, 139.66 12.92 M139.66 12.92 C137.8 20.41, 137.98 26.82, 139.66 38.76 M139.66 12.92 C139.63 17.74, 138.83 23.12, 139.66 38.76 M139.66 38.76 C139.01 45.78, 133.88 52.53, 126.73 51.69 M139.66 38.76 C141.85 47.57, 136.91 52.46, 126.73 51.69 M126.73 51.69 C81.8 50.59, 40.99 49.95, 12.92 51.69 M126.73 51.69 C83.17 52.36, 40.66 51.86, 12.92 51.69 M12.92 51.69 C5.84 51.54, -0.06 48.4, 0 38.76 M12.92 51.69 C2.43 53.84, -1.72 47.67, 0 38.76 M0 38.76 C-0.74 31.07, -1.82 21.73, 0 12.92 M0 38.76 C-0.31 28.82, -0.37 20.64, 0 12.92 M0 12.92 C-1.44 4.29, 5.51 0.15, 12.92 0 M0 12.92 C-2.15 2.97, 3.1 -0.86, 12.92 0" stroke="#1e1e1e" stroke-width="2" fill="none"></path></g><g transform="translate(280.20187644989335 763.2711689759764) rotate(0 31.939971923828125 12.5)"><text x="31.939971923828125" y="0" font-family="Virgil, Segoe UI Emoji" font-size="20px" fill="#1e1e1e" text-anchor="middle" style="white-space: pre;" direction="ltr" dominant-baseline="text-before-edge">Worker</text></g><g stroke-linecap="round" transform="translate(49.1800529777168 750.0500688161569) rotate(0 69.82792577870356 25.84276708717846)"><path d="M12.92 0 C51.42 -1.13, 90.41 2.57, 126.73 0 M12.92 0 C55.87 0.6, 97.99 0.67, 126.73 0 M126.73 0 C134.17 -1.96, 140.13 4.57, 139.66 12.92 M126.73 0 C136.53 0.93, 141.84 2.63, 139.66 12.92 M139.66 12.92 C138.99 17.13, 139.05 23.23, 139.66 38.76 M139.66 12.92 C139.92 22.15, 140.26 32.07, 139.66 38.76 M139.66 38.76 C139.03 47.45, 137.25 51.23, 126.73 51.69 M139.66 38.76 C140.42 49.1, 137.07 51.79, 126.73 51.69 M126.73 51.69 C97.34 51.75, 64.96 51.76, 12.92 51.69 M126.73 51.69 C82.14 52.25, 37.95 53.48, 12.92 51.69 M12.92 51.69 C4.34 52.41, 1.71 47.94, 0 38.76 M12.92 51.69 C5.04 53.96, -1.31 48, 0 38.76 M0 38.76 C1.08 32.82, 1.73 23.39, 0 12.92 M0 38.76 C-0.78 33.24, 0.28 25.65, 0 12.92 M0 12.92 C1.05 2.59, 5.55 -1.24, 12.92 0 M0 12.92 C2.19 2.23, 5.75 -0.3, 12.92 0" stroke="#1e1e1e" stroke-width="2" fill="none"></path></g><g transform="translate(87.06800683259223 763.3928359033354) rotate(0 31.939971923828125 12.5)"><text x="31.939971923828125" y="0" font-family="Virgil, Segoe UI Emoji" font-size="20px" fill="#1e1e1e" text-anchor="middle" style="white-space: pre;" direction="ltr" dominant-baseline="text-before-edge">Worker</text></g><g transform="translate(208.4682443553852 594.5091820581304) rotate(0 99.4399185180664 12.5)"><text x="0" y="0" font-family="Virgil, Segoe UI Emoji" font-size="20px" fill="#1e1e1e" text-anchor="start" style="white-space: pre;" direction="ltr" dominant-baseline="text-before-edge">ClientWorkerManager</text></g><g stroke-linecap="round" transform="translate(23.920995733114637 664.793968570295) rotate(0 282.8319995385132 77.88996885822087)"><path d="M32 0 C182.83 -2.65, 332.3 -2.42, 533.66 0 M32 0 C197.59 -1.17, 362.27 -1.35, 533.66 0 M533.66 0 C555.83 -0.25, 564.28 11.21, 565.66 32 M533.66 0 C552.88 1.09, 567.96 11.34, 565.66 32 M565.66 32 C563.58 62.27, 564 94.54, 565.66 123.78 M565.66 32 C565.88 62.36, 564.16 94.17, 565.66 123.78 M565.66 123.78 C564.3 146.1, 553.37 157.57, 533.66 155.78 M565.66 123.78 C566.52 144.31, 555.53 153.77, 533.66 155.78 M533.66 155.78 C417.48 158.24, 301.88 157.84, 32 155.78 M533.66 155.78 C397.01 156.77, 260.68 156.97, 32 155.78 M32 155.78 C9.6 157.45, -0.19 144.15, 0 123.78 M32 155.78 C11.55 153.55, -1.37 145.69, 0 123.78 M0 123.78 C1.65 97.42, -1.16 70.02, 0 32 M0 123.78 C-0.04 104, -1.73 83.05, 0 32 M0 32 C-1.81 11.16, 9.09 -1.26, 32 0 M0 32 C0.13 8.51, 11.44 1.46, 32 0" stroke="#1e1e1e" stroke-width="2" fill="none"></path></g><g transform="translate(235.01464514214922 685.2352908079326) rotate(0 79.30992126464844 12.5)"><text x="0" y="0" font-family="Virgil, Segoe UI Emoji" font-size="20px" fill="#1e1e1e" text-anchor="start" style="white-space: pre;" direction="ltr" dominant-baseline="text-before-edge">ClientWorkerPool</text></g><g stroke-linecap="round"><g transform="translate(497.8588483151346 432.2123845371706) rotate(0 0.713426530648519 108.59530283599133)"><path d="M-0.69 -0.37 C-0.55 36.05, 1.34 181.35, 1.58 217.79 M1.15 -1.6 C1.08 34.52, 0.96 179.64, 0.71 215.98" stroke="#1e1e1e" stroke-width="2" fill="none"></path></g><g transform="translate(497.8588483151346 432.2123845371706) rotate(0 0.713426530648519 108.59530283599133)"><path d="M-9.46 187.75 C-6.55 198.27, -1.27 207.09, 0.71 215.98 M-9.46 187.75 C-5.17 198.22, -1.66 208.95, 0.71 215.98" stroke="#1e1e1e" stroke-width="2" fill="none"></path></g><g transform="translate(497.8588483151346 432.2123845371706) rotate(0 0.713426530648519 108.59530283599133)"><path d="M11.07 187.82 C6.55 198.2, 4.4 206.99, 0.71 215.98 M11.07 187.82 C7.42 198.3, 2.99 209, 0.71 215.98" stroke="#1e1e1e" stroke-width="2" fill="none"></path></g></g><mask></mask><g transform="translate(516.322553222432 511.26813261410064) rotate(0 148.47987365722656 12.5)"><text x="0" y="0" font-family="Virgil, Segoe UI Emoji" font-size="20px" fill="#1e1e1e" text-anchor="start" style="white-space: pre;" direction="ltr" dominant-baseline="text-before-edge">Dispatch Task To WorkerPool</text></g><g stroke-linecap="round"><g transform="translate(567.9728455571745 754.4393565273158) rotate(0 91.79634566076311 -61.33791277951616)"><path d="M0.1 0.73 C30.62 -19.91, 153.73 -103.16, 184.3 -123.78 M-1.3 0.06 C29.01 -20.47, 153.05 -102.5, 183.72 -122.83" stroke="#1e1e1e" stroke-width="2" fill="none"></path></g></g><mask></mask><g stroke-linecap="round"><g transform="translate(563.0196580564357 799.2580834246924) rotate(0 93.49891528057407 64.14985802478526)"><path d="M0.4 -1.1 C31.83 20.45, 156.68 107.69, 187.84 129.31 M-0.84 0.93 C30.56 22.17, 156.06 106.19, 187.33 127.72" stroke="#1e1e1e" stroke-width="2" fill="none"></path></g></g><mask></mask><g stroke-linecap="round"><g transform="translate(914.0692732551582 741.6544660110246) rotate(0 -0.07147112919528809 46.68419336925649)"><path d="M-0.33 -0.37 C-0.41 15.38, -1.5 77.88, -1.3 93.56 M1.7 -1.61 C2.05 13.84, 0.98 76.01, 0.81 91.54" stroke="#1e1e1e" stroke-width="2" fill="none"></path></g><g transform="translate(914.0692732551582 741.6544660110246) rotate(0 -0.07147112919528809 46.68419336925649)"><path d="M-9.06 63.21 C-7.63 67.85, -4.41 78.06, 0.81 91.54 M-9.06 63.21 C-5.51 71.59, -1.65 81.82, 0.81 91.54" stroke="#1e1e1e" stroke-width="2" fill="none"></path></g><g transform="translate(914.0692732551582 741.6544660110246) rotate(0 -0.07147112919528809 46.68419336925649)"><path d="M11.46 63.5 C8.17 68.01, 6.65 78.16, 0.81 91.54 M11.46 63.5 C8.19 71.96, 5.24 82.1, 0.81 91.54" stroke="#1e1e1e" stroke-width="2" fill="none"></path></g></g><mask></mask><g stroke-linecap="round" transform="translate(790.2986074454268 849.3367921789204) rotate(0 132.9334216734778 34.542843282604395)"><path d="M17.27 0 C104.6 1.75, 191.82 0.83, 248.6 0 M17.27 0 C107 -0.95, 198.44 -1.15, 248.6 0 M248.6 0 C261.91 0.04, 266.32 5.24, 265.87 17.27 M248.6 0 C259.83 0.16, 265.92 6.95, 265.87 17.27 M265.87 17.27 C267.45 24.01, 267.97 32.69, 265.87 51.81 M265.87 17.27 C265.12 25.97, 265.02 35.16, 265.87 51.81 M265.87 51.81 C264.9 62.33, 260.46 68.61, 248.6 69.09 M265.87 51.81 C267.95 62.15, 259.84 66.83, 248.6 69.09 M248.6 69.09 C193.52 67.07, 141.22 68.53, 17.27 69.09 M248.6 69.09 C187.82 71.41, 126.67 70.13, 17.27 69.09 M17.27 69.09 C5.57 69.02, 0.97 63.67, 0 51.81 M17.27 69.09 C7.22 67.3, 1.09 61.86, 0 51.81 M0 51.81 C1.43 42.01, -0.47 29.95, 0 17.27 M0 51.81 C-0.95 38.64, 0.07 26.6, 0 17.27 M0 17.27 C1.2 4.27, 4.81 -1.87, 17.27 0 M0 17.27 C1.34 4.19, 5.23 -1.79, 17.27 0" stroke="#1e1e1e" stroke-width="2" fill="none"></path></g><g transform="translate(812.9721109060139 871.3796354615249) rotate(0 110.25991821289062 12.5)"><text x="110.25991821289062" y="0" font-family="Virgil, Segoe UI Emoji" font-size="20px" fill="#1e1e1e" text-anchor="middle" style="white-space: pre;" direction="ltr" dominant-baseline="text-before-edge">BackendTaskGenerate</text></g><g stroke-linecap="round" transform="translate(1475.347169768103 775.4107126712049) rotate(0 72.06562596993751 67.49460658841855)"><path d="M32 0 C54.84 2.62, 79.11 -0.13, 112.13 0 M32 0 C52.41 0.21, 70.72 -0.22, 112.13 0 M112.13 0 C134.81 0.47, 144.24 12.21, 144.13 32 M112.13 0 C131.65 -1.1, 142.33 9.06, 144.13 32 M144.13 32 C143.12 55.98, 142.34 81.26, 144.13 102.99 M144.13 32 C143.39 59.82, 144.22 87.63, 144.13 102.99 M144.13 102.99 C143.29 122.58, 132.09 134.64, 112.13 134.99 M144.13 102.99 C146.33 125.72, 131.79 136.03, 112.13 134.99 M112.13 134.99 C86.06 134.49, 61.66 136.66, 32 134.99 M112.13 134.99 C94.02 134.85, 78.19 134.73, 32 134.99 M32 134.99 C8.89 134.13, 1.67 122.83, 0 102.99 M32 134.99 C12.76 134.69, -0.6 123.39, 0 102.99 M0 102.99 C-0.34 76.21, -0.9 51.05, 0 32 M0 102.99 C-0.13 81.15, 0.39 58.27, 0 32 M0 32 C0.46 8.93, 9.87 -0.6, 32 0 M0 32 C-1.39 12.27, 9.71 1.31, 32 0" stroke="#1e1e1e" stroke-width="2" fill="none"></path></g><g transform="translate(1495.1728283918492 830.4053192596234) rotate(0 52.239967346191406 12.5)"><text x="52.239967346191406" y="0" font-family="Virgil, Segoe UI Emoji" font-size="20px" fill="#1e1e1e" text-anchor="middle" style="white-space: pre;" direction="ltr" dominant-baseline="text-before-edge">MetaData</text></g><g mask="url(#mask-RBJEhs9znka2W4mAVEMR0)" stroke-linecap="round"><g transform="translate(1086.2919214759509 788.6425573721122) rotate(0 97.66787209427758 0.11462026154225669)"><path d="M0.06 0.01 C32.67 -0.2, 162.91 -0.97, 195.41 -0.8 M-1.37 -1.03 C31.12 -1.16, 161.91 0.17, 194.51 0.2" stroke="#1e1e1e" stroke-width="2" fill="none"></path></g><g transform="translate(1086.2919214759509 788.6425573721122) rotate(0 97.66787209427758 0.11462026154225669)"><path d="M166.25 10.29 C174.09 7.6, 180.21 4.26, 194.51 0.2 M166.25 10.29 C177.44 5.58, 186.29 3.11, 194.51 0.2" stroke="#1e1e1e" stroke-width="2" fill="none"></path></g><g transform="translate(1086.2919214759509 788.6425573721122) rotate(0 97.66787209427758 0.11462026154225669)"><path d="M166.38 -10.23 C174.26 -7.21, 180.35 -4.86, 194.51 0.2 M166.38 -10.23 C177.64 -7.33, 186.44 -2.19, 194.51 0.2" stroke="#1e1e1e" stroke-width="2" fill="none"></path></g></g><mask id="mask-RBJEhs9znka2W4mAVEMR0"><rect x="0" y="0" fill="#fff" width="1381.627665664506" height="888.8717978951967"></rect><rect x="1104.2398610140763" y="763.7571776336544" fill="#000" width="159.4398651123047" height="50" opacity="1"></rect></mask><g transform="translate(1104.2398610140763 763.7571776336544) rotate(0 79.07431311597577 24.468662479965673)"><text x="79.71993255615234" y="0" font-family="Virgil, Segoe UI Emoji" font-size="20px" fill="#1e1e1e" text-anchor="middle" style="white-space: pre;" direction="ltr" dominant-baseline="text-before-edge">Get slots from </text><text x="79.71993255615234" y="25" font-family="Virgil, Segoe UI Emoji" font-size="20px" fill="#1e1e1e" text-anchor="middle" style="white-space: pre;" direction="ltr" dominant-baseline="text-before-edge">Router</text></g><g stroke-linecap="round" transform="translate(65.46983650958714 1433.6030667584885) rotate(0 64.07116737847684 36.03256894708056)"><path d="M18.02 0 C43.57 -0.28, 64.74 -0.26, 110.13 0 M18.02 0 C55.23 -0.93, 90.04 -1.39, 110.13 0 M110.13 0 C120.9 1.13, 128.24 5.1, 128.14 18.02 M110.13 0 C120.58 1.87, 129.3 6.06, 128.14 18.02 M128.14 18.02 C127.29 28.2, 129.13 36.15, 128.14 54.05 M128.14 18.02 C127.66 26.5, 128.43 33.71, 128.14 54.05 M128.14 54.05 C128.49 66.74, 123.03 73.34, 110.13 72.07 M128.14 54.05 C128.2 64.83, 121.83 73.19, 110.13 72.07 M110.13 72.07 C74.37 71.65, 38.57 70.89, 18.02 72.07 M110.13 72.07 C91.92 71.15, 73 72.27, 18.02 72.07 M18.02 72.07 C4.87 70.49, -0.51 67.9, 0 54.05 M18.02 72.07 C4.94 70.11, 1.08 64.96, 0 54.05 M0 54.05 C0.27 46.4, 1.48 36.41, 0 18.02 M0 54.05 C0.02 47.05, 0.85 37.96, 0 18.02 M0 18.02 C-0.13 6.45, 4.59 -1.49, 18.02 0 M0 18.02 C-1.26 5.73, 5.67 -0.95, 18.02 0" stroke="#1e1e1e" stroke-width="2" fill="none"></path></g><g transform="translate(94.6310460023218 1457.135635705569) rotate(0 34.90995788574219 12.5)"><text x="34.90995788574219" y="0" font-family="Virgil, Segoe UI Emoji" font-size="20px" fill="#1e1e1e" text-anchor="middle" style="white-space: pre;" direction="ltr" dominant-baseline="text-before-edge">Pikiwidb</text></g><g stroke-linecap="round" transform="translate(237.3759384606475 1435.8010183667368) rotate(0 69.37976298975349 33.653015092473424)"><path d="M16.83 0 C45.68 1.51, 73.69 -0.77, 121.93 0 M16.83 0 C56.77 0.84, 97.08 -0.15, 121.93 0 M121.93 0 C135.06 1.91, 140.1 6.1, 138.76 16.83 M121.93 0 C132.52 -0.61, 138.24 5.44, 138.76 16.83 M138.76 16.83 C139.19 25.71, 140.98 36.26, 138.76 50.48 M138.76 16.83 C138.27 24.52, 137.97 32.58, 138.76 50.48 M138.76 50.48 C139.56 63.14, 134.03 65.47, 121.93 67.31 M138.76 50.48 C140.61 63.22, 132.41 65.22, 121.93 67.31 M121.93 67.31 C92.51 67.59, 64.6 68.48, 16.83 67.31 M121.93 67.31 C99.47 66.13, 79.18 67.53, 16.83 67.31 M16.83 67.31 C6.16 65.73, 0.67 60, 0 50.48 M16.83 67.31 C7.44 66.07, -1.31 63.64, 0 50.48 M0 50.48 C-0.96 43.32, 0.35 31.2, 0 16.83 M0 50.48 C-0.62 41.27, 0.6 32.49, 0 16.83 M0 16.83 C1.18 7.13, 7.24 1.51, 16.83 0 M0 16.83 C0.68 4.95, 4.38 -1.52, 16.83 0" stroke="#1e1e1e" stroke-width="2" fill="none"></path></g><g transform="translate(271.8457435646588 1456.95403345921) rotate(0 34.90995788574219 12.5)"><text x="34.90995788574219" y="0" font-family="Virgil, Segoe UI Emoji" font-size="20px" fill="#1e1e1e" text-anchor="middle" style="white-space: pre;" direction="ltr" dominant-baseline="text-before-edge">Pikiwidb</text></g><g stroke-linecap="round" transform="translate(418.9147539410628 1431.624883433574) rotate(0 70.78935299620917 36.20218831211196)"><path d="M18.1 0 C49.41 1.36, 79.94 0, 123.48 0 M18.1 0 C41.94 -0.22, 68.15 0.17, 123.48 0 M123.48 0 C134.7 -1.24, 143.05 7.12, 141.58 18.1 M123.48 0 C133.45 -0.72, 140.52 4.91, 141.58 18.1 M141.58 18.1 C143.58 29.95, 140.27 43.14, 141.58 54.3 M141.58 18.1 C142.28 30.91, 141.52 44.59, 141.58 54.3 M141.58 54.3 C141.55 66.67, 133.7 72.2, 123.48 72.4 M141.58 54.3 C143.74 66.09, 136.39 73.66, 123.48 72.4 M123.48 72.4 C82.92 70.46, 42.52 70.38, 18.1 72.4 M123.48 72.4 C95.19 72.35, 66.06 71.15, 18.1 72.4 M18.1 72.4 C4.96 70.64, 0.44 66.12, 0 54.3 M18.1 72.4 C4.95 72.68, -1.95 66.37, 0 54.3 M0 54.3 C0.44 41.71, 0.89 29.42, 0 18.1 M0 54.3 C-0.19 40.98, -0.58 27.51, 0 18.1 M0 18.1 C0.43 5.57, 4.38 -0.92, 18.1 0 M0 18.1 C0.87 6.89, 5.16 0.09, 18.1 0" stroke="#1e1e1e" stroke-width="2" fill="none"></path></g><g transform="translate(454.7941490515298 1455.327071745686) rotate(0 34.90995788574219 12.5)"><text x="34.90995788574219" y="0" font-family="Virgil, Segoe UI Emoji" font-size="20px" fill="#1e1e1e" text-anchor="middle" style="white-space: pre;" direction="ltr" dominant-baseline="text-before-edge">Pikiwidb</text></g><g stroke-linecap="round"><g transform="translate(132.54171895360696 1339.734953100762) rotate(0 -0.29623474473862643 40.837054819975776)"><path d="M-0.61 -0.79 C-0.52 13.01, -0.14 68.03, -0.05 81.81 M1.27 1.42 C1.3 15.52, -0.41 69.77, -0.71 83.41" stroke="#1e1e1e" stroke-width="2" fill="none"></path></g><g transform="translate(132.54171895360696 1339.734953100762) rotate(0 -0.29623474473862643 40.837054819975776)"><path d="M-10.21 54.95 C-9.36 63.07, -5.45 70.21, -0.71 83.41 M-10.21 54.95 C-7.82 62.98, -3.72 72.76, -0.71 83.41" stroke="#1e1e1e" stroke-width="2" fill="none"></path></g><g transform="translate(132.54171895360696 1339.734953100762) rotate(0 -0.29623474473862643 40.837054819975776)"><path d="M10.3 55.51 C5.99 63.38, 4.75 70.38, -0.71 83.41 M10.3 55.51 C6.24 63.34, 3.88 72.95, -0.71 83.41" stroke="#1e1e1e" stroke-width="2" fill="none"></path></g></g><mask></mask><g stroke-linecap="round"><g transform="translate(302.7179855950005 1336.9874463967242) rotate(0 0.2819448787819283 42.894101182560405)"><path d="M-0.02 0.81 C0.15 15.18, 0.34 71.9, 0.56 85.93 M-1.49 0.19 C-1.44 14.81, -0.8 73.26, -0.39 87.55" stroke="#1e1e1e" stroke-width="2" fill="none"></path></g><g transform="translate(302.7179855950005 1336.9874463967242) rotate(0 0.2819448787819283 42.894101182560405)"><path d="M-11.16 59.55 C-7.08 66.82, -5.39 75.38, -0.39 87.55 M-11.16 59.55 C-8.22 66.29, -7.02 73.49, -0.39 87.55" stroke="#1e1e1e" stroke-width="2" fill="none"></path></g><g transform="translate(302.7179855950005 1336.9874463967242) rotate(0 0.2819448787819283 42.894101182560405)"><path d="M9.36 59.17 C8.11 66.54, 4.47 75.2, -0.39 87.55 M9.36 59.17 C7.48 66.2, 3.86 73.48, -0.39 87.55" stroke="#1e1e1e" stroke-width="2" fill="none"></path></g></g><mask></mask><g stroke-linecap="round"><g transform="translate(486.44543515351063 1336.1512876570762) rotate(0 0.33923873006284566 45.88525234095067)"><path d="M0.12 0.22 C0.37 15.38, 0.33 75.26, 0.42 90.71 M-1.27 -0.7 C-1.1 14.59, -0.86 76.37, -0.66 91.7" stroke="#1e1e1e" stroke-width="2" fill="none"></path></g><g transform="translate(486.44543515351063 1336.1512876570762) rotate(0 0.33923873006284566 45.88525234095067)"><path d="M-11.14 63.59 C-8.64 69.01, -8.59 75.32, -0.66 91.7 M-11.14 63.59 C-6.89 73.99, -3.48 86.66, -0.66 91.7" stroke="#1e1e1e" stroke-width="2" fill="none"></path></g><g transform="translate(486.44543515351063 1336.1512876570762) rotate(0 0.33923873006284566 45.88525234095067)"><path d="M9.38 63.42 C7.6 68.91, 3.37 75.25, -0.66 91.7 M9.38 63.42 C5.45 73.79, 0.68 86.53, -0.66 91.7" stroke="#1e1e1e" stroke-width="2" fill="none"></path></g></g><mask></mask><g stroke-linecap="round" transform="translate(819.2027709287383 1063.209142824365) rotate(0 95.8497066592953 42.5)"><path d="M21.25 0 C69.34 1.08, 116.68 -0.1, 170.45 0 M21.25 0 C75.74 0.62, 129.31 1.09, 170.45 0 M170.45 0 C184.97 -1.28, 190.37 8.89, 191.7 21.25 M170.45 0 C186.62 -1.13, 189.7 7.07, 191.7 21.25 M191.7 21.25 C191.02 35, 192.22 43.95, 191.7 63.75 M191.7 21.25 C190.73 36.47, 191.99 51.27, 191.7 63.75 M191.7 63.75 C192.02 75.99, 186.43 85.7, 170.45 85 M191.7 63.75 C193.03 76.04, 184.72 83.83, 170.45 85 M170.45 85 C117.25 83.06, 58.27 85.22, 21.25 85 M170.45 85 C136 83.54, 99.04 83.88, 21.25 85 M21.25 85 C7.9 85.49, -0.76 77.23, 0 63.75 M21.25 85 C5.71 83.12, 0.5 77.53, 0 63.75 M0 63.75 C0.7 50.68, 0.6 34.96, 0 21.25 M0 63.75 C-0.57 49.89, 0.05 33.66, 0 21.25 M0 21.25 C-0.01 5.63, 5.11 -1.86, 21.25 0 M0 21.25 C-2.26 4.81, 5.07 -2.06, 21.25 0" stroke="#1e1e1e" stroke-width="2" fill="none"></path></g><g transform="translate(867.512514819479 1068.209142824365) rotate(0 47.53996276855469 37.5)"><text x="47.53996276855469" y="0" font-family="Virgil, Segoe UI Emoji" font-size="20px" fill="#1e1e1e" text-anchor="middle" style="white-space: pre;" direction="ltr" dominant-baseline="text-before-edge">Task</text><text x="47.53996276855469" y="25" font-family="Virgil, Segoe UI Emoji" font-size="20px" fill="#1e1e1e" text-anchor="middle" style="white-space: pre;" direction="ltr" dominant-baseline="text-before-edge">Execute()</text><text x="47.53996276855469" y="50" font-family="Virgil, Segoe UI Emoji" font-size="20px" fill="#1e1e1e" text-anchor="middle" style="white-space: pre;" direction="ltr" dominant-baseline="text-before-edge">Callback()</text></g><g stroke-linecap="round"><g transform="translate(916.0090090024355 922.7394670435584) rotate(0 0.18185520676945544 66.66377003153977)"><path d="M0.77 -0.2 C0.73 21.89, -0.74 110.49, -0.75 132.86 M-0.28 -1.34 C0.07 20.88, 1.31 111.92, 1.38 134.16" stroke="#1e1e1e" stroke-width="2" fill="none"></path></g><g transform="translate(916.0090090024355 922.7394670435584) rotate(0 0.18185520676945544 66.66377003153977)"><path d="M-9.14 106.06 C-6.67 111.41, -4.39 121.14, 1.38 134.16 M-9.14 106.06 C-4.66 116.39, -0.64 125.57, 1.38 134.16" stroke="#1e1e1e" stroke-width="2" fill="none"></path></g><g transform="translate(916.0090090024355 922.7394670435584) rotate(0 0.18185520676945544 66.66377003153977)"><path d="M11.38 105.87 C8.54 111.41, 5.51 121.18, 1.38 134.16 M11.38 105.87 C8.5 116.25, 5.15 125.5, 1.38 134.16" stroke="#1e1e1e" stroke-width="2" fill="none"></path></g></g><mask></mask><g transform="translate(948.0601443220249 983.3640054849247) rotate(0 120.25991821289062 12.5)"><text x="0" y="0" font-family="Virgil, Segoe UI Emoji" font-size="20px" fill="#1e1e1e" text-anchor="start" style="white-space: pre;" direction="ltr" dominant-baseline="text-before-edge">Generate Backend Task</text></g><g mask="url(#mask-PfCpkotliBHUip-4eq0Lz)" stroke-linecap="round"><g transform="translate(812.6219953986783 1093.5142558770247) rotate(0 -130.96772668673398 -0.053867266405745795)"><path d="M1.04 1.11 C-42.6 1.14, -217.17 0.33, -260.92 -0.01 M0.12 0.65 C-43.66 0.91, -217.65 1.69, -261.34 1.58" stroke="#1e1e1e" stroke-width="2" fill="none"></path></g><g transform="translate(812.6219953986783 1093.5142558770247) rotate(0 -130.96772668673398 -0.053867266405745795)"><path d="M-233.16 -8.72 C-241.88 -2.93, -254.1 0.04, -261.34 1.58 M-233.16 -8.72 C-238.85 -7.14, -246.72 -4.43, -261.34 1.58" stroke="#1e1e1e" stroke-width="2" fill="none"></path></g><g transform="translate(812.6219953986783 1093.5142558770247) rotate(0 -130.96772668673398 -0.053867266405745795)"><path d="M-233.13 11.8 C-241.82 9.91, -254.06 5.2, -261.34 1.58 M-233.13 11.8 C-239 8.57, -246.88 6.47, -261.34 1.58" stroke="#1e1e1e" stroke-width="2" fill="none"></path></g></g><mask id="mask-PfCpkotliBHUip-4eq0Lz"><rect x="0" y="0" fill="#fff" width="1174.5574487721462" height="1193.6219904098361"></rect><rect x="639.0243096054991" y="1080.960388610619" fill="#000" width="85.25991821289062" height="25" opacity="1"></rect></mask><g transform="translate(639.0243096054991 1080.9603886106192) rotate(0 43.44780272190923 13.345640970459385)"><text x="42.62995910644531" y="0" font-family="Virgil, Segoe UI Emoji" font-size="20px" fill="#1e1e1e" text-anchor="middle" style="white-space: pre;" direction="ltr" dominant-baseline="text-before-edge">Dispatch</text></g><g stroke-linecap="round"><g transform="translate(570.4851838198059 1237.185655912471) rotate(0 86.68234402337981 1.1556970979910943)"><path d="M-0.06 0.79 C28.87 1, 145.43 0.82, 174.52 1.17 M-1.54 0.16 C27.24 0.48, 144.87 1.99, 174.18 2.11" stroke="#1e1e1e" stroke-width="2" fill="none"></path></g><g transform="translate(570.4851838198059 1237.185655912471) rotate(0 86.68234402337981 1.1556970979910943)"><path d="M145.9 12.11 C157.95 10.26, 165.45 6.44, 174.18 2.11 M145.9 12.11 C156.48 9.13, 165.25 5.91, 174.18 2.11" stroke="#1e1e1e" stroke-width="2" fill="none"></path></g><g transform="translate(570.4851838198059 1237.185655912471) rotate(0 86.68234402337981 1.1556970979910943)"><path d="M146.08 -8.41 C158.06 -2.48, 165.49 1.49, 174.18 2.11 M146.08 -8.41 C156.44 -4.26, 165.14 -0.33, 174.18 2.11" stroke="#1e1e1e" stroke-width="2" fill="none"></path></g></g><mask></mask><g stroke-linecap="round" transform="translate(759.4207491628207 1211.1118472185335) rotate(0 72.16518557863839 32.00306069036617)"><path d="M16 0 C57.45 -0.29, 101.77 -1.67, 128.33 0 M16 0 C38.18 -0.67, 60.95 -1.58, 128.33 0 M128.33 0 C140.43 -0.02, 143.23 6.7, 144.33 16 M128.33 0 C140.77 -1.88, 144.45 3.74, 144.33 16 M144.33 16 C145.48 26.03, 145.61 37.89, 144.33 48 M144.33 16 C144.07 23.49, 143.88 32.3, 144.33 48 M144.33 48 C145.31 56.77, 140.82 62.24, 128.33 64.01 M144.33 48 C144.31 57.21, 141.1 63.19, 128.33 64.01 M128.33 64.01 C90.91 64.23, 51.7 64.48, 16 64.01 M128.33 64.01 C89.39 65.55, 49.99 66.02, 16 64.01 M16 64.01 C6.48 64.14, 0.94 56.68, 0 48 M16 64.01 C7.12 64.21, 1.01 59.27, 0 48 M0 48 C0.23 38.45, -1.91 31.14, 0 16 M0 48 C0.65 35.79, -0.85 24.33, 0 16 M0 16 C-1.68 6.01, 4.24 -0.84, 16 0 M0 16 C2.1 5.84, 5.74 -1.5, 16 0" stroke="#1e1e1e" stroke-width="2" fill="none"></path></g><g transform="translate(791.5759631228068 1230.6149079088996) rotate(0 40.009971618652315 12.5)"><text x="40.009971618652344" y="0" font-family="Virgil, Segoe UI Emoji" font-size="20px" fill="#1e1e1e" text-anchor="middle" style="white-space: pre;" direction="ltr" dominant-baseline="text-before-edge">Callback</text></g></svg>